<svg id="Layer_2" height="512" viewBox="0 0 512 512" width="512" xmlns="http://www.w3.org/2000/svg" data-name="Layer 2"><path d="m128 352 16-245.819c0-58.642 50.144-98.181 112-98.181s112 39.539 112 98.181l8 245.819" fill="#3a1e13"/><path d="m8 512v-16l72.858-136.144a24 24 0 0 1 17.759-7.856h101.383v-96h112v96h108.343a24 24 0 0 1 18.864 9.163l64.793 126.837v24z" fill="#c46f35"/><path d="m200 307.212c52.244 18.922 94.943-7.19 112-20.387v-30.825h-112z" fill="#a05c2e"/><path d="m336 88v144l-43.233 57.048a16 16 0 0 1 -13.2 6.952h-39.877a16 16 0 0 1 -12.494-6l-51.196-58v-144l104-40z" fill="#c46f35"/><path d="m239.69 296h39.881a15.991 15.991 0 0 0 9.311-3l-51.287-37.3a50.121 50.121 0 0 1 -20.607-42.389v-141.076l-40.988 15.765v144l51.2 58a16 16 0 0 0 12.49 6z" fill="#e28140" opacity=".5"/><path d="m216 152h16v16h-16z" fill="#3a1e13"/><path d="m288 152h16v16h-16z" fill="#3a1e13"/><path d="m260 264c-12.648 0-24.512-5.992-30.961-15.638a17.9 17.9 0 0 1 16.661-27.762 40.13 40.13 0 0 1 13.88 4.247c3.434 1.717 7.521 2.78 11.8-2.345a13.964 13.964 0 0 1 14.182-4.629 13.532 13.532 0 0 1 10.057 10.39 18.1 18.1 0 0 1 .381 3.737c0 17.645-16.149 32-36 32zm-16.133-27.494a1.75 1.75 0 0 0 -1.579.924 1.778 1.778 0 0 0 .052 2.04c3.519 5.262 10.285 8.53 17.66 8.53 8.672 0 16.072-4.438 18.839-10.625-7.592 5.712-17.084 6.445-26.417 1.78a24.371 24.371 0 0 0 -8.313-2.638c-.083-.007-.163-.011-.242-.011z" fill="#c62005"/><path d="m280 208h-40a8 8 0 0 1 -7.59-10.53l7.59-22.77v-6.7h16v8a8.02 8.02 0 0 1 -.41 2.53l-4.49 13.47h17.8l-4.49-13.47a8.02 8.02 0 0 1 -.41-2.53v-8h16v6.7l7.59 22.768a8 8 0 0 1 -7.59 10.532z" fill="#8f4c2e"/><path d="m234.343 149.657-5.656-5.657h-28.687v-16h32a8 8 0 0 1 5.657 2.343l8 8z" fill="#3a1e13"/><path d="m277.657 149.657-11.314-11.314 8-8a8 8 0 0 1 5.657-2.343h32v16h-28.687z" fill="#3a1e13"/><path d="m144 352h16v112h-16z" fill="#627c28"/><path d="m352 352h16v112h-16z" fill="#627c28"/><path d="m88 512v-16l24-32h296l16 32v16z" fill="#8baf46"/><g fill="#301209"><path d="m160 272h16v80h-16z"/><path d="m336 296h16v56h-16z"/><path d="m271.998 16h16v32h-16z"/></g><path d="m137.357 352h-38.74a24 24 0 0 0 -17.759 7.856l-38.4 71.759c11.942-2.167 64.603-15.188 94.899-79.615z" fill="#f9f2ed" opacity=".2"/></svg>

