<svg id="Layer_2" height="512" viewBox="0 0 512 512" width="512" xmlns="http://www.w3.org/2000/svg" data-name="Layer 2"><path d="m255.648 21.99c-15.156-.892-13.068-12.612-30.942-9.264-8.67 1.624-15.369 15.7-25.884 19.783-8.786 3.416-23.365-2.757-32.45 3.081-8.047 5.171-8.568 20.727-16.183 28.27-6.787 6.723-22.489 6.88-28.464 15.821-5.288 7.913.316 22.5-4.008 32.378-3.812 8.712-18.475 14.248-21.314 24.65-2.51 9.2 7.17 21.149 5.576 31.777-.933 11.483-11.98 8.546-11.865 22.605.055 6.675 12.134 14.361 12.253 22.906.1 7.243-11.769 15.214-11.606 23.245.153 7.515 12.332 14.971 12.552 22.744.218 7.722-11.52 15.874-11.223 23.441.312 7.953 12.657 15.133 13.069 22.451.471 8.348-10.955 17.006-10.334 23.864.891 9.843 13.743 15.794 15 20.8l2.175 9.458h280l10.179-9.455c1.252-5.008 14.1-10.96 15-20.8.621-6.857-10.805-15.514-10.335-23.859.412-7.315 12.757-14.494 13.069-22.444.3-7.566-11.441-15.717-11.223-23.439.22-7.776 12.4-15.235 12.552-22.753.163-8.032-11.707-16-11.606-23.246.119-8.546 12.2-16.234 12.253-22.91.115-14.057-10.932-11.12-11.865-22.6-1.594-10.629 8.085-22.583 5.575-31.781-2.839-10.4-17.5-15.938-21.315-24.65-4.325-9.883 1.278-24.466-4.01-32.379-5.974-8.94-21.676-9.1-28.463-15.819-7.615-7.543-8.136-23.1-16.182-28.269-9.085-5.838-23.663.335-32.449-3.08-10.514-4.087-17.214-18.159-25.884-19.782-17.873-3.347-15.784 8.373-30.94 9.265l-.356.001z" fill="#3a1e13"/><path d="m8 512v-16l72.858-136.144a24 24 0 0 1 17.759-7.856h101.383v-96l112-8v104h108.343a24 24 0 0 1 18.864 9.163l64.793 126.837v24" fill="#c46f35"/><path d="m200 307.212c52.244 18.922 94.943-7.19 112-20.387v-30.825h-112z" fill="#a05c2e"/><path d="m175.556 144.473 32.444-16.473h24l24-32 32-16 16 24v8l24 8 8 16v96l-43.233 57.048a16 16 0 0 1 -13.2 6.952h-39.877a16 16 0 0 1 -12.494-6l-51.196-58v-88" fill="#c46f35"/><path d="m280.721 295.954c.112-.008.223-.02.334-.031q.421-.039.836-.1c.111-.016.221-.033.332-.051q.483-.082.958-.191c.05-.012.1-.021.15-.033q.582-.141 1.15-.324l.046-.016c.356-.116.708-.247 1.054-.387l.155-.065c.336-.141.667-.291.993-.454l.065-.032a16.1 16.1 0 0 0 2.088-1.27l-51.287-37.3a50.121 50.121 0 0 1 -20.607-42.389v-85.311h-8.988l-32 16.247v87.753l51.2 58a16 16 0 0 0 12.494 6h39.882c.381 0 .764-.018 1.145-.046z" fill="#e28140" opacity=".5"/><circle cx="160" cy="256" fill="#ed3106" r="24"/><circle cx="352" cy="256" fill="#ed3106" r="24"/><path d="m168 459.471-24-107.471h16l23.619 104z" fill="#f28775"/><path d="m336 496-15.18-5.06 47.18-138.94h16z" fill="#f28775"/><g fill="#fff"><circle cx="232" cy="400" r="8"/><circle cx="256" cy="416" r="8"/><circle cx="280" cy="400" r="8"/><circle cx="304" cy="376" r="8"/><circle cx="208" cy="376" r="8"/></g><path d="m256 456h16v48h-16z" fill="#a55e2f"/><path d="m358.211 155.578c-.967-.483-3.933-.666-6.1-.8-5.339-.328-11.982-.736-17.521-4.953-4.6-3.5-6.648-8.776-8.457-13.429-1.067-2.746-2.276-5.857-3.546-7-1.234-1.109-4.456-1.946-7.3-2.684-4.752-1.234-10.138-2.633-14.18-6.642-4.5-4.462-6.119-10.454-7.421-15.268-.566-2.1-1.423-5.261-2.11-6.032-2.428-2.591-4.07-4.661-5.269-6.172-.315-.4-.673-.847-.977-1.216-.164.014-.355.033-.578.058-4.562 4.779-9.916 7.169-14.723 9.315-3.419 1.526-6.372 2.845-8.711 4.83-2.8 2.375-5.228 5.92-7.8 9.674-3.946 5.76-8.028 11.715-14.57 15.316-7.053 3.881-14.828 4.192-21.689 4.466-4.258.17-8.28.331-11.155 1.327-4.091 1.417-8.158 4.333-12.092 7.154-5.211 3.736-10.6 7.6-16.969 8.807-11.8 2.239-17.161.458-22.937-2.1a20.892 20.892 0 0 0 -10.106-2.229v-16a36.62 36.62 0 0 1 16.59 3.6c3.516 1.557 5.639 2.5 13.477 1.009 2.9-.55 6.652-3.241 10.626-6.09 4.636-3.324 9.891-7.091 16.177-9.269 5.11-1.771 10.521-1.987 15.755-2.2 5.589-.223 10.867-.434 14.613-2.5 3.209-1.766 6.064-5.933 9.087-10.344 2.912-4.25 6.213-9.066 10.645-12.827 4.082-3.465 8.576-5.472 12.542-7.242 4.6-2.054 8.233-3.676 10.726-7a8 8 0 0 1 5.127-3.1c10.266-1.656 13.908-.42 19.482 6.607 1.083 1.365 2.431 3.065 4.411 5.178 3.4 3.628 4.716 8.5 5.878 12.792.843 3.119 1.8 6.653 3.243 8.085.976.968 4.42 1.863 6.935 2.516 4.61 1.2 9.836 2.555 13.97 6.269 4.107 3.69 6.051 8.69 7.766 13.1.938 2.416 2.225 5.725 3.237 6.5 1.674 1.274 5.464 1.507 8.808 1.712 4.124.253 8.388.515 12.274 2.458z" fill="#54291c"/><path d="m216 144h16v16h-16z" fill="#562719"/><path d="m288 144h16v16h-16z" fill="#562719"/><circle cx="208" cy="192" fill="#f28775" r="8"/><circle cx="304" cy="192" fill="#f28775" r="8"/><path d="m260 264c-12.648 0-24.512-5.992-30.961-15.638a17.9 17.9 0 0 1 16.661-27.762 40.145 40.145 0 0 1 13.88 4.247c3.434 1.717 7.521 2.78 11.8-2.345a13.959 13.959 0 0 1 14.183-4.628 13.531 13.531 0 0 1 10.056 10.388 18.116 18.116 0 0 1 .381 3.738c0 17.645-16.149 32-36 32zm-16.133-27.494a1.751 1.751 0 0 0 -1.579.924 1.777 1.777 0 0 0 .052 2.04c3.519 5.262 10.285 8.53 17.66 8.53 8.672 0 16.072-4.438 18.839-10.624-7.592 5.711-17.084 6.446-26.417 1.779a24.35 24.35 0 0 0 -8.313-2.637 2.389 2.389 0 0 0 -.242-.012z" fill="#c62005"/><path d="m280 208h-40a8 8 0 0 1 -7.59-10.53l8-24 15.18 5.06-4.49 13.47h17.8l-4.49-13.47 15.18-5.06 8 24a8 8 0 0 1 -7.59 10.53z" fill="#8f4c2e"/><path d="m95.502 512 .498-40 72-48 96 80 88-80 64 40v48z" fill="#f28775"/><path d="m137.357 352h-38.74a24 24 0 0 0 -17.759 7.856l-38.4 71.759c11.942-2.167 64.603-15.188 94.899-79.615z" fill="#f9f2ed" opacity=".2"/></svg>

