<svg id="Layer_2" height="512" viewBox="0 0 512 512" width="512" xmlns="http://www.w3.org/2000/svg" data-name="Layer 2"><path d="m504 512v-33.805l-56-126.195h-104-184-96l-56 120v40" fill="#3e73a3"/><path d="m176 144-24-40 8-32-32-24 40-16-16-24 72 16 24-16 32 16 56-16-8 24 48 16-24 24 8 32-24 40" fill="#1d2b38"/><path d="m336 144 24-40-8-32h-192l-8 32 24 40z" fill="#0e161c"/><path d="m200 264v88l56 56 56-56v-88z" fill="#f7ac79"/><path d="m200 329.347c52.244 18.922 94.943-7.19 112-20.387v-30.825h-112z" fill="#ea8e50"/><path d="m330.413 260.789-45.919 39.359a16 16 0 0 1 -10.413 3.852h-36.162a16 16 0 0 1 -10.413-3.852l-45.919-39.359a16 16 0 0 1 -5.587-12.148v-144.641c0-8.837 23.163-32 32-32h104c8.837 0 24 23.163 24 32v144.641a16 16 0 0 1 -5.587 12.148z" fill="#f7ac79"/><path d="m291.016 294.557-53.421-38.852a50.121 50.121 0 0 1 -20.607-42.389v-141.316h-8.988c-8.836 0-32 23.164-32 32v144.641a16 16 0 0 0 5.587 12.148l40.915 35.07 5 4.289a16 16 0 0 0 10.416 3.852h36.162a16 16 0 0 0 10.412-3.851z" fill="#f9f2ed" opacity=".2"/><g fill="#562719"><path d="m234.343 133.657-5.656-5.657h-28.687v-16h32a8 8 0 0 1 5.657 2.343l8 8z"/><path d="m277.657 133.657-11.314-11.313 8-8a8 8 0 0 1 5.657-2.344h32v16h-28.687z"/><path d="m208 144h16v16h-16z"/><path d="m288 144h16v16h-16z"/></g><path d="m280 208h-32a8 8 0 0 1 -7.761-9.94l7.761-31.045v-7.015h16v8a7.975 7.975 0 0 1 -.239 1.94l-5.515 22.06h21.754z" fill="#8f4c2e"/><path d="m176 216-24-24v-48l24 8z" fill="#ef9a60"/><path d="m336 216 24-16v-56l-24 8z" fill="#ef9a60"/><path d="m280 240h-56a8 8 0 0 1 -5.657-2.343l-8-8 11.314-11.313 5.656 5.656h49.373l5.656-5.657 11.314 11.313-8 8a8 8 0 0 1 -5.656 2.344z" fill="#562719"/><path d="m248 248h16v16h-16z" fill="#562719"/><path d="m112 416h16v96h-16z" fill="#346182"/><path d="m384 416h16v96h-16z" fill="#346182"/><path d="m312 352-56 144-56-144v-24l-40 24v72l40 8-24 32 40 24v24h80v-24l40-24-24-32 40-8-8-72-32-24z" fill="#7293b7"/><path d="m200 352 56 48 56-48-56 144z" fill="#dfdfdd"/><path d="m8 472v3.864c20.241-8.384 40.86-22.091 59.316-40.548 25.857-25.857 42.4-55.956 48.029-83.316h-51.345z" fill="#f9f2ed" opacity=".2"/><path d="m248 40h16v32h-16z" fill="#29506d"/><path d="m217.7 72-18.545-35.578-14.31 7.156 14.815 28.422z" fill="#29506d"/></svg>

