<svg id="Layer_2" height="512" viewBox="0 0 512 512" width="512" xmlns="http://www.w3.org/2000/svg" data-name="Layer 2"><path d="m8 512v-40l56-120h384l56 126.195v33.805" fill="#dd8910"/><path d="m336 144 24-40-8-32h-192l-8 32 24 40z" fill="#0e161c"/><path d="m200 264v88l56 56 56-56v-88z" fill="#f7ac79"/><path d="m200 329.347c52.244 18.922 94.943-7.19 112-20.387v-30.825h-112z" fill="#ea8e50"/><path d="m330.413 260.789-45.919 39.359a16 16 0 0 1 -10.413 3.852h-36.162a16 16 0 0 1 -10.413-3.852l-45.919-39.359a16 16 0 0 1 -5.587-12.148v-144.641c0-8.837 23.163-32 32-32h104c8.837 0 24 23.163 24 32v144.641a16 16 0 0 1 -5.587 12.148z" fill="#f7ac79"/><path d="m291.016 294.557-53.421-38.852a50.121 50.121 0 0 1 -20.607-42.389v-141.316h-8.988c-8.836 0-32 23.164-32 32v144.641a16 16 0 0 0 5.587 12.148l40.915 35.07 5 4.289a16 16 0 0 0 10.416 3.852h36.162a16 16 0 0 0 10.412-3.851z" fill="#f9f2ed" opacity=".2"/><path d="m234.343 133.657-5.656-5.657h-28.687v-16h32a8 8 0 0 1 5.657 2.343l8 8z" fill="#562719"/><path d="m277.657 133.657-11.314-11.313 8-8a8 8 0 0 1 5.657-2.344h32v16h-28.687z" fill="#562719"/><path d="m176 216-24-24v-48l24 8z" fill="#ef9a60"/><path d="m336 216 24-16v-56l-24 8z" fill="#ef9a60"/><path d="m280 240h-56a8 8 0 0 1 -5.657-2.343l-8-8 11.314-11.313 5.656 5.656h49.373l5.656-5.657 11.314 11.313-8 8a8 8 0 0 1 -5.656 2.344z" fill="#562719"/><path d="m248 248h16v16h-16z" fill="#562719"/><path d="m112 416h16v96h-16z" fill="#698729"/><path d="m377 416h16v96h-16z" fill="#bf730d"/><path d="m352 72h-192l1.953-34.079c-1.953-13.921 2.987-33.184 14.047-29.921 8.992 2.653 18.242 16 24 16l16-16s32 16 48 16 64 0 88 48z" fill="#1d2b38"/><g fill="#562719"><path d="m234.343 133.657-5.656-5.657h-28.687v-16h32a8 8 0 0 1 5.657 2.343l8 8z"/><path d="m277.657 133.657-11.314-11.313 8-8a8 8 0 0 1 5.657-2.344h32v16h-28.687z"/><path d="m280 240h-56a8 8 0 0 1 -5.657-2.343l-8-8 11.314-11.313 5.656 5.656h49.373l5.656-5.657 11.314 11.313-8 8a8 8 0 0 1 -5.656 2.344z"/><path d="m248 248h16v16h-16z"/></g><path d="m112 416h16v96h-16z" fill="#bf730d"/><path d="m280 208h-32a8 8 0 0 1 -7.761-9.94l7.761-31.045v-7.015h16v8a7.975 7.975 0 0 1 -.239 1.94l-5.515 22.06h21.754z" fill="#8f4c2e"/><path d="m312 352v72l-56-16-56 16v-72l56 56z" fill="#bf730d"/><path d="m248 408h16v104h-16z" fill="#bf730d"/><path d="m288 456h16v16h-16z" fill="#bf730d"/><path d="m288 496h16v16h-16z" fill="#bf730d"/><path d="m232 152h48v16h-48z" fill="#273543"/><path d="m176 152h24v16h-24z" fill="#273543"/><path d="m312 152h24v16h-24z" fill="#273543"/><path d="m216 136a24 24 0 1 0 24 24 24.027 24.027 0 0 0 -24-24z" fill="#354458"/><path d="m296 136a24 24 0 1 0 24 24 24.027 24.027 0 0 0 -24-24z" fill="#354458"/><path d="m236.72 147.91a23.99 23.99 0 0 0 -43.5 19.63c23.997-2.367 37.724-13.569 43.5-19.63z" fill="#f9f2ed" opacity=".3"/><path d="m316.72 147.91a23.99 23.99 0 0 0 -43.5 19.63c23.997-2.367 37.724-13.569 43.5-19.63z" fill="#f9f2ed" opacity=".3"/><path d="m8 472v3.864c20.241-8.384 40.86-22.091 59.316-40.548 25.857-25.857 42.4-55.956 48.029-83.316h-51.345z" fill="#f9f2ed" opacity=".2"/></svg>

